# xmcd
#
# Track frame offsets: 
#        150
#        11910
#        29574
#        51137
#        66015
#        83727
#        100800
#        121503
#        141649
#        159777
#        169491
#
# Disc length: 2674 seconds
#
# Revision: 0
# Processed by: cddbd v1.5.2PL0 Copyright (c) Steve Scherf et al.
# Submitted via: ExactAudioCopy v0.95b3
#
DISCID=8e0a700b
DTITLE=David Brake and That Damn Band - Lean , Mean Texas Machine
DYEAR=2002
DGENRE=Country
TTITLE0=Even Five To Closing Time(What Do I Do Now)
TTITLE1=Lean , Mean Texas Machine
TTITLE2=Born In A Bad Mood
TTITLE3=Swindler
TTITLE4=Cowpunks , Angels , And Architects
TTITLE5=101 Tattoos
TTITLE6=All Mines
TTITLE7=El Paso Cafe
TTITLE8=Think Of Me
TTITLE9=The Ballad Of Tom Delancy(Love Kicked Me Ass)
TTITLE10=Sounds Of The Sacred
EXTD=
EXTT0=
EXTT1=
EXTT2=
EXTT3=
EXTT4=
EXTT5=
EXTT6=
EXTT7=
EXTT8=
EXTT9=
EXTT10=
PLAYORDER=
